<?xml version="1.0" encoding="UTF-8" standalone="no"?>
<!-- Created with Inkscape (http://www.inkscape.org/) -->

<svg
   xmlns:dc="http://purl.org/dc/elements/1.1/"
   xmlns:cc="http://creativecommons.org/ns#"
   xmlns:rdf="http://www.w3.org/1999/02/22-rdf-syntax-ns#"
   xmlns:svg="http://www.w3.org/2000/svg"
   xmlns="http://www.w3.org/2000/svg"
   xmlns:sodipodi="http://sodipodi.sourceforge.net/DTD/sodipodi-0.dtd"
   xmlns:inkscape="http://www.inkscape.org/namespaces/inkscape"
   width="727.87445mm"
   height="541.86664mm"
   viewBox="0 0 2579.0827 1919.9999"
   id="svg7133"
   version="1.1"
   inkscape:version="0.91 r13725"
   sodipodi:docname="coKoaMug.svg">
  <defs
     id="defs7135" />
  <sodipodi:namedview
     id="base"
     pagecolor="#ffffff"
     bordercolor="#666666"
     borderopacity="1.0"
     inkscape:pageopacity="0.0"
     inkscape:pageshadow="2"
     inkscape:zoom="0.12374369"
     inkscape:cx="1632.9015"
     inkscape:cy="1515.1845"
     inkscape:document-units="px"
     inkscape:current-layer="layer1"
     showgrid="false"
     fit-margin-left="-0.4"
     fit-margin-top="0"
     fit-margin-right="0"
     fit-margin-bottom="0"
     inkscape:window-width="1366"
     inkscape:window-height="695"
     inkscape:window-x="0"
     inkscape:window-y="27"
     inkscape:window-maximized="1" />
  <metadata
     id="metadata7138">
    <rdf:RDF>
      <cc:Work
         rdf:about="">
        <dc:format>image/svg+xml</dc:format>
        <dc:type
           rdf:resource="http://purl.org/dc/dcmitype/StillImage" />
        <dc:title></dc:title>
      </cc:Work>
    </rdf:RDF>
  </metadata>
  <g
     inkscape:label="Layer 1"
     inkscape:groupmode="layer"
     id="layer1"
     transform="translate(1483.1184,301.92346)">
    <ellipse
       style="opacity:1;fill:none;fill-opacity:1;stroke:#f0d494;stroke-width:230.25300598;stroke-linecap:round;stroke-miterlimit:4;stroke-dasharray:none;stroke-opacity:1"
       id="path4518"
       cx="-971.53558"
       cy="670.57623"
       rx="397.87366"
       ry="557.8736" />
    <rect
       style="opacity:1;fill:#f0d494;fill-opacity:1;stroke:none;stroke-width:20.60000038;stroke-linecap:round;stroke-miterlimit:4;stroke-dasharray:none;stroke-opacity:1"
       id="rect4516"
       width="1920"
       height="1919.9999"
       x="-1618.0765"
       y="-824.03558"
       rx="0"
       ry="0"
       transform="matrix(0,-1,1,0,0,0)" />
    <path
       style="opacity:1;fill:#bd4200;fill-opacity:1;stroke:none;stroke-width:1;stroke-linecap:round;stroke-miterlimit:4;stroke-dasharray:none;stroke-opacity:1"
       d="m -584.0354,98.07648 320.00004,0 c 44.32,0 80,35.68 80,80 l 0,80 -80,80 80,80 0,80 c 0,44.32 -35.68,80 -80,80 l -320.00004,0 c -44.32,0 -80,-35.68 -80,-80 l 0,-320 c 0,-44.32 35.68,-80 80,-80 z"
       id="rect4454"
       inkscape:connector-curvature="0"
       sodipodi:nodetypes="ssscccssssss" />
    <rect
       y="-104.03564"
       x="-578.07623"
       height="480.00003"
       width="480"
       id="rect4459"
       style="opacity:1;fill:#bd4200;fill-opacity:1;stroke:none;stroke-width:1;stroke-linecap:round;stroke-miterlimit:4;stroke-dasharray:none;stroke-opacity:1"
       ry="80.000023"
       rx="80"
       transform="matrix(0,-1,1,0,0,0)" />
    <path
       sodipodi:nodetypes="ssscccssssss"
       inkscape:connector-curvature="0"
       id="path4486"
       d="m 935.96464,738.07649 0,320.00001 c 0,44.32 -35.68,80 -80,80 l -80,0 -80,-80 -80,80 -80,0 c -44.32,0 -80,-35.68 -80,-80 l 0,-320.00001 c 0,-44.32001 35.68,-80.00001 80,-80.00001 l 320,0 c 44.32,0 80,35.68 80,80.00001 z"
       style="opacity:1;fill:#bd4200;fill-opacity:1;stroke:none;stroke-width:1;stroke-linecap:round;stroke-miterlimit:4;stroke-dasharray:none;stroke-opacity:1" />
    <rect
       rx="80"
       ry="80.000023"
       style="opacity:1;fill:#bd4200;fill-opacity:1;stroke:none;stroke-width:1;stroke-linecap:round;stroke-miterlimit:4;stroke-dasharray:none;stroke-opacity:1"
       id="rect4492"
       width="480"
       height="480.00003"
       x="-1138.0763"
       y="-104.03564"
       transform="matrix(0,-1,1,0,0,0)" />
    <path
       sodipodi:nodetypes="scccsscccsscccssss"
       inkscape:connector-curvature="0"
       id="path4503"
       d="m -584.0354,658.07648 160.00004,0 0,80.00001 80,-80.00001 80,0 c 44.32,0 80,35.68 80,80.00001 l 0,80 -80,80 80,80 0,80.00001 c 0,44.32 -35.68,80 -80,80 l -80,0 -80,-80 0,80 -160.00004,0 c -44.32,0 -80,-35.68 -80,-80 l 0,-320.00001 c 0,-44.32001 35.68,-80.00001 80,-80.00001 z"
       style="opacity:1;fill:#bd4200;fill-opacity:1;stroke:none;stroke-width:1;stroke-linecap:round;stroke-miterlimit:4;stroke-dasharray:none;stroke-opacity:1" />
    <rect
       rx="20.823009"
       ry="20.823027"
       style="opacity:1;fill:#bd4200;fill-opacity:1;stroke:#ff0000;stroke-width:5.36192703;stroke-linecap:round;stroke-miterlimit:4;stroke-dasharray:none;stroke-opacity:1"
       id="rect4514"
       width="124.93806"
       height="124.93813"
       x="-578.07623"
       y="471.02637"
       transform="matrix(0,-1,1,0,0,0)" />
  </g>
</svg>
