<?xml version="1.0" encoding="UTF-8" standalone="no"?>
<!-- Created with Inkscape (http://www.inkscape.org/) -->

<svg
   xmlns:dc="http://purl.org/dc/elements/1.1/"
   xmlns:cc="http://creativecommons.org/ns#"
   xmlns:rdf="http://www.w3.org/1999/02/22-rdf-syntax-ns#"
   xmlns:svg="http://www.w3.org/2000/svg"
   xmlns="http://www.w3.org/2000/svg"
   xmlns:sodipodi="http://sodipodi.sourceforge.net/DTD/sodipodi-0.dtd"
   xmlns:inkscape="http://www.inkscape.org/namespaces/inkscape"
   width="179.65732mm"
   height="192.72839mm"
   viewBox="0 0 636.58105 682.89588"
   id="svg4594"
   version="1.1"
   inkscape:version="0.91 r13725"
   sodipodi:docname="co.koa.svg">
  <defs
     id="defs4596" />
  <sodipodi:namedview
     id="base"
     pagecolor="#ffffff"
     bordercolor="#666666"
     borderopacity="1.0"
     inkscape:pageopacity="0.0"
     inkscape:pageshadow="2"
     inkscape:zoom="0.35"
     inkscape:cx="59.714058"
     inkscape:cy="586.94768"
     inkscape:document-units="px"
     inkscape:current-layer="layer1"
     showgrid="false"
     inkscape:window-width="1366"
     inkscape:window-height="695"
     inkscape:window-x="0"
     inkscape:window-y="27"
     inkscape:window-maximized="1"
     inkscape:snap-bbox="true"
     fit-margin-top="0"
     fit-margin-left="0"
     fit-margin-right="0"
     fit-margin-bottom="0">
    <inkscape:grid
       type="xygrid"
       id="grid5164"
       originx="-38.263567"
       originy="-109.88573" />
  </sodipodi:namedview>
  <metadata
     id="metadata4599">
    <rdf:RDF>
      <cc:Work
         rdf:about="">
        <dc:format>image/svg+xml</dc:format>
        <dc:type
           rdf:resource="http://purl.org/dc/dcmitype/StillImage" />
        <dc:title></dc:title>
      </cc:Work>
    </rdf:RDF>
  </metadata>
  <g
     inkscape:label="Layer 1"
     inkscape:groupmode="layer"
     id="layer1"
     transform="translate(-38.263567,-259.58058)">
    <ellipse
       style="opacity:1;fill:none;fill-opacity:1;stroke:#ede994;stroke-width:56.80088425;stroke-linecap:round;stroke-miterlimit:4;stroke-dasharray:none;stroke-opacity:1"
       id="path4518"
       cx="164.81506"
       cy="708.73853"
       rx="98.151054"
       ry="137.62128" />
    <rect
       style="opacity:1;fill:#ede994;fill-opacity:1;stroke:none;stroke-width:20.60000038;stroke-linecap:round;stroke-miterlimit:4;stroke-dasharray:none;stroke-opacity:1"
       id="rect4516"
       width="473.64288"
       height="473.64285"
       x="201.20174"
       y="468.83362"
       rx="0"
       ry="0" />
    <path
       style="opacity:1;fill:#ff5100;fill-opacity:1;stroke:none;stroke-width:1;stroke-linecap:round;stroke-miterlimit:4;stroke-dasharray:none;stroke-opacity:1"
       d="m 260.40708,567.50918 78.94049,0 c 10.93326,0 19.73512,8.80186 19.73512,19.73509 l 0,19.73515 -19.73512,19.73509 19.73512,19.73509 0,19.73516 c 0,10.93323 -8.80186,19.73509 -19.73512,19.73509 l -78.94049,0 c -10.93323,0 -19.73509,-8.80186 -19.73509,-19.73509 l 0,-78.94049 c 0,-10.93323 8.80186,-19.73509 19.73509,-19.73509 z"
       id="rect4454"
       inkscape:connector-curvature="0"
       sodipodi:nodetypes="ssscccssssss" />
    <rect
       y="567.50916"
       x="378.81778"
       height="118.41072"
       width="118.41072"
       id="rect4459"
       style="opacity:1;fill:#ff5100;fill-opacity:1;stroke:none;stroke-width:1;stroke-linecap:round;stroke-miterlimit:4;stroke-dasharray:none;stroke-opacity:1"
       ry="19.735126"
       rx="19.735121" />
    <path
       sodipodi:nodetypes="ssscccssssss"
       inkscape:connector-curvature="0"
       id="path4486"
       d="m 635.37438,725.39009 0,78.94049 c 0,10.9333 -8.80187,19.73516 -19.73513,19.73516 l -19.73512,0 -19.73512,-19.73516 -19.73512,19.73516 -19.73511,0 c -10.93326,0 -19.73513,-8.80186 -19.73513,-19.73516 l 0,-78.94049 c 0,-10.93323 8.80187,-19.73509 19.73513,-19.73509 l 78.94047,0 c 10.93326,0 19.73513,8.80186 19.73513,19.73509 z"
       style="opacity:1;fill:#ff5100;fill-opacity:1;stroke:none;stroke-width:1;stroke-linecap:round;stroke-miterlimit:4;stroke-dasharray:none;stroke-opacity:1" />
    <rect
       rx="19.735121"
       ry="19.735126"
       style="opacity:1;fill:#ff5100;fill-opacity:1;stroke:none;stroke-width:1;stroke-linecap:round;stroke-miterlimit:4;stroke-dasharray:none;stroke-opacity:1"
       id="rect4492"
       width="118.41072"
       height="118.41072"
       x="378.81778"
       y="705.65497" />
    <path
       sodipodi:nodetypes="scccsscccsscccssss"
       inkscape:connector-curvature="0"
       id="path4503"
       d="m 260.40708,705.655 39.47025,0 0,19.73509 19.73512,-19.73509 19.73512,0 c 10.93326,0 19.73512,8.80186 19.73512,19.73509 l 0,19.73516 -19.73512,19.73509 19.73512,19.73515 0,19.73509 c 0,10.9333 -8.80186,19.73516 -19.73512,19.73516 l -19.73512,0 -19.73512,-19.73516 0,19.73516 -39.47025,0 c -10.93323,0 -19.73509,-8.80186 -19.73509,-19.73516 l 0,-78.94049 c 0,-10.93323 8.80186,-19.73509 19.73509,-19.73509 z"
       style="opacity:1;fill:#ff5100;fill-opacity:1;stroke:none;stroke-width:1;stroke-linecap:round;stroke-miterlimit:4;stroke-dasharray:none;stroke-opacity:1" />
    <rect
       rx="5.1368074"
       ry="5.1368117"
       style="opacity:1;fill:#ff5100;fill-opacity:1;stroke:#ff0000;stroke-width:1.32272851;stroke-linecap:round;stroke-miterlimit:4;stroke-dasharray:none;stroke-opacity:1"
       id="rect4514"
       width="30.820847"
       height="30.820862"
       x="520.67926"
       y="655.099" />
    <path
       style="fill:#ffdd55;fill-rule:evenodd;stroke:none;stroke-width:1px;stroke-linecap:butt;stroke-linejoin:miter;stroke-opacity:1"
       d="m 423.43091,427.80229 -67.2887,-92.52193 67.2887,0 0,-75.69978 67.28869,109.34412 -67.28869,0 z"
       id="path4532"
       inkscape:connector-curvature="0"
       sodipodi:nodetypes="ccccccc" />
  </g>
</svg>
